#define NFC_width 16
#define NFC_height 16
static char NFC_bits[] = {
  0x00, 0x00, 0x00, 0x08, 0x00, 0x10, 0x00, 0x24, 0x00, 0x48, 0x42, 0x52, 
  0x46, 0x54, 0x4A, 0x55, 0x52, 0x55, 0x62, 0x54, 0x42, 0x52, 0x00, 0x48, 
  0x00, 0x24, 0x00, 0x10, 0x00, 0x08, 0x00, 0x00, };
