#define RFID_width 16
#define RFID_height 16
static char RFID_bits[] = {
  0x00, 0x00, 0x00, 0x02, 0x00, 0x0C, 0x40, 0x12, 0xA0, 0x24, 0x10, 0x49, 
  0x08, 0x52, 0x04, 0x54, 0x02, 0x52, 0x01, 0x49, 0x80, 0x24, 0x41, 0x12, 
  0x22, 0x0C, 0x14, 0x02, 0x08, 0x00, 0x00, 0x00, };
