#define Game_width 16
#define Game_height 16
static char Game_bits[] = {
  0x00, 0x02, 0x00, 0x01, 0x80, 0x00, 0x00, 0x01, 0x70, 0x0E, 0x88, 0x11, 
  0x28, 0x14, 0x54, 0x2A, 0x24, 0x24, 0x02, 0x40, 0x42, 0x42, 0xA2, 0x45, 
  0x52, 0x4A, 0x0C, 0x30, 0x00, 0x00, 0x00, 0x00, };
