#define Settings_width 16
#define Settings_height 16
static char Settings_bits[] = {
  0x00, 0x08, 0x02, 0x14, 0x04, 0x0A, 0x08, 0x4A, 0x10, 0xB2, 0x20, 0x41, 
  0xC0, 0x38, 0x40, 0x04, 0x20, 0x02, 0x1C, 0x03, 0x82, 0x04, 0x4D, 0x18, 
  0x53, 0x28, 0x50, 0x50, 0x28, 0x60, 0x18, 0x00, };
