#define SubGhz_width 16
#define SubGhz_height 16
static char SubGhz_bits[] = {
  0x00, 0x00, 0x10, 0x08, 0x08, 0x10, 0x24, 0x24, 0x12, 0x48, 0x0A, 0x50, 
  0xAA, 0x55, 0xAA, 0x55, 0x0A, 0x50, 0x92, 0x49, 0xA4, 0x25, 0x88, 0x11, 
  0x90, 0x09, 0x80, 0x01, 0x80, 0x01, 0x00, 0x00, };
